<svg width="40" height="40" viewBox="0 0 40 40" fill="none" xmlns="http://www.w3.org/2000/svg">
<rect x="0.5" y="0.5" width="39" height="39" rx="7.5" stroke="#2D69FD" stroke-opacity="0.3"/>
<path fill-rule="evenodd" clip-rule="evenodd" d="M24.9395 11C26.2805 11 27.5705 11.53 28.5195 12.481C29.4695 13.43 30.0005 14.71 30.0005 16.05V23.95C30.0005 26.74 27.7305 29 24.9395 29H15.0605C12.2695 29 10.0005 26.74 10.0005 23.95V16.05C10.0005 13.26 12.2595 11 15.0605 11H24.9395ZM26.5304 17.5403L26.6104 17.4603C26.8494 17.1703 26.8494 16.7503 26.5994 16.4603C26.4604 16.3113 26.2694 16.2203 26.0704 16.2003C25.8604 16.1893 25.6604 16.2603 25.5094 16.4003L21.0004 20.0003C20.4204 20.4813 19.5894 20.4813 19.0004 20.0003L14.5004 16.4003C14.1894 16.1703 13.7594 16.2003 13.5004 16.4703C13.2304 16.7403 13.2004 17.1703 13.4294 17.4703L13.5604 17.6003L18.1104 21.1503C18.6704 21.5903 19.3494 21.8303 20.0604 21.8303C20.7694 21.8303 21.4604 21.5903 22.0194 21.1503L26.5304 17.5403Z" fill="#2D69FD"/>
</svg>
