<svg width="40" height="40" viewBox="0 0 40 40" fill="none" xmlns="http://www.w3.org/2000/svg">
<rect x="0.5" y="0.5" width="39" height="39" rx="7.5" stroke="#2D69FD" stroke-opacity="0.3"/>
<path fill-rule="evenodd" clip-rule="evenodd" d="M11.5 18.3178C11.5 13.7179 15.3439 10 19.9934 10C24.6561 10 28.5 13.7179 28.5 18.3178C28.5 20.6357 27.657 22.7876 26.2695 24.6116C24.7388 26.6235 22.8522 28.3765 20.7285 29.7524C20.2425 30.0704 19.8039 30.0944 19.2704 29.7524C17.1347 28.3765 15.2481 26.6235 13.7305 24.6116C12.342 22.7876 11.5 20.6357 11.5 18.3178ZM17.1943 18.5763C17.1943 20.1172 18.4518 21.3292 19.9936 21.3292C21.5363 21.3292 22.8059 20.1172 22.8059 18.5763C22.8059 17.0473 21.5363 15.7764 19.9936 15.7764C18.4518 15.7764 17.1943 17.0473 17.1943 18.5763Z" fill="#2D69FD"/>
</svg>
