<svg width="40" height="40" viewBox="0 0 40 40" fill="none" xmlns="http://www.w3.org/2000/svg">
<rect x="0.5" y="0.5" width="39" height="39" rx="7.5" stroke="#2D69FD" stroke-opacity="0.3"/>
<path fill-rule="evenodd" clip-rule="evenodd" d="M22.3558 10.0079C22.1328 9.97595 21.9087 10.0419 21.7304 10.1838C21.5472 10.3277 21.4326 10.5356 21.4077 10.7684C21.355 11.2391 21.6946 11.6648 22.1646 11.7178C25.4063 12.0795 27.9259 14.6048 28.2904 17.8565C28.3392 18.2922 28.7047 18.621 29.1409 18.621C29.1738 18.621 29.2057 18.619 29.2385 18.615C29.4666 18.59 29.6697 18.4771 29.8132 18.2972C29.9556 18.1174 30.0203 17.8935 29.9944 17.6647C29.5403 13.6075 26.4002 10.4586 22.3558 10.0079ZM22.418 13.4898C21.942 13.4018 21.5048 13.7056 21.4142 14.1703C21.3235 14.635 21.6283 15.0887 22.0914 15.1796C23.4856 15.4514 24.5622 16.5307 24.8351 17.9297V17.9307C24.9128 18.3334 25.2673 18.6262 25.6756 18.6262C25.7304 18.6262 25.7852 18.6212 25.8409 18.6112C26.304 18.5183 26.6088 18.0656 26.5181 17.5999C26.1108 15.5104 24.5024 13.8965 22.418 13.4898ZM24.0001 23.0902C24.4515 22.8299 24.9615 22.5359 25.6047 22.6727C26.1873 22.7956 28.1731 24.4075 28.7169 24.9661C29.0734 25.3319 29.2716 25.7096 29.3025 26.0874C29.3562 27.5693 27.3425 29.2612 26.976 29.472C26.489 29.8228 25.9224 29.9997 25.286 29.9997C24.6357 29.9997 23.9106 29.8148 23.1199 29.4461C18.8296 27.6553 12.2755 21.2307 10.5427 16.9736C9.82362 15.3887 9.81864 14.0816 10.5307 13.0993C10.8145 12.6386 12.4329 10.7129 13.8819 10.7739C14.2673 10.8069 14.6418 11.0047 15.0093 11.3645C15.565 11.9091 17.1365 13.9007 17.258 14.4853C17.3925 15.1349 17.0977 15.6515 16.8358 16.1052C16.7799 16.2027 16.7046 16.3185 16.6222 16.4453C16.3092 16.9265 15.8926 17.567 16.04 17.9759C17.0967 20.5701 19.5376 22.8336 22.133 23.8969C22.5343 24.0427 23.1745 23.6232 23.6542 23.3088C23.7791 23.2269 23.8932 23.1522 23.9893 23.0964L24.0001 23.0902Z" fill="#2D69FD"/>
</svg>
